<svg xmlns="http://www.w3.org/2000/svg" viewBox="0 0 149.23 174.71"><title>logoAsset 2</title><g id="Layer_2" data-name="Layer 2"><g id="Layer_1-2" data-name="Layer 1"><path d="M24.22,25C27.75,14.66,30.4,12.78,41,12.78c1.66,0,3.33-.11,5,0,5.76.44,10.06-.48,14.26-5.87,7.9-10.15,21.84-8.86,30.28,2,2.33,3,4.6,4.23,8.26,3.94s7.29-.07,10.94-.06c9.47,0,12.8,2.61,15.11,12.2,2.81,0,5.76-.06,8.7,0,9.88.25,15.7,6.13,15.7,15.94q0,58.94,0,117.89c0,9.55-5.74,15.76-15.3,15.79q-59.19.21-118.39,0C5.69,174.59,0,168.45,0,158.54q0-58.2,0-116.4C0,30.63,5.52,25.06,17,25,19.29,25,21.6,25,24.22,25Zm.6,12.65H20.2c-7.58,0-7.58,0-7.58,7.46,0,37,.08,73.93-.1,110.89,0,4.74,1.27,6.19,6.12,6.17q55.94-.28,111.88,0c4.78,0,6.19-1.31,6.17-6.12-.19-36,0-71.94-.15-107.9,0-11.76,2.37-10.58-10.95-10.39-.28,0-.56.28-1.34.69V49.91H24.82Zm12.89-.37h73.57V25.42c-7.22,0-14,0-20.79,0-5.6,0-7.86-2.28-10.09-7.56-.9-2.13-3.76-4.52-5.9-4.69-1.81-.15-4.81,2.34-5.64,4.35-2.59,6.24-4.41,7.9-11.29,7.91H37.71Z"/><path d="M43,109.21,61.26,91.85a28.6,28.6,0,0,1,3.63-3.35c2.85-1.87,6.19-1.84,7.9,1,1.2,2,1.75,6.16.55,7.47-8.39,9.11-17.2,17.84-26.12,26.43-2.64,2.54-5.88,1.76-8.45-.74-4-3.93-8-7.9-11.9-11.94-2.69-2.78-3-6-.33-8.85,2.85-3,6.19-2.83,9.18,0C38.35,104.29,40.79,107,43,109.21Z"/><path d="M100.09,137.13c-5.64,0-11.27-.06-16.91,0-4.2.06-6.82-2-7-6s2.57-6.49,6.58-6.54q17.4-.24,34.79,0c3.9,0,6.67,2,6.76,6.38.08,3.92-2.53,6.1-7.32,6.16C111.35,137.18,105.72,137.13,100.09,137.13Z"/><path d="M105.29,87.37c-4.14,0-8.28,0-12.43,0-4,0-6.27-2-6.44-6s2.3-6.35,6-6.47c8.61-.25,17.24-.28,25.85,0,3.68.13,6.2,2.5,6,6.54s-2.64,5.88-6.56,5.91C113.58,87.4,109.44,87.38,105.29,87.37Z"/><path d="M105,112.25c-4.14,0-8.29.07-12.43,0-3.71-.09-5.87-2.12-6.12-5.82s1.87-6.38,5.38-6.52c8.93-.36,17.89-.38,26.82,0,3.7.15,6,2.8,5.66,6.8-.37,3.67-2.69,5.55-6.38,5.58C113.59,112.28,109.28,112.25,105,112.25Z"/></g></g></svg>